<mxfile host="app.diagrams.net" modified="2023-08-24T04:42:48.790Z" agent="Mozilla/5.0 (Windows NT 10.0; Win64; x64; rv:109.0) Gecko/20100101 Firefox/116.0" version="21.6.8" etag="0EQOpg95_pQXo00zCZFr" type="github">
  <diagram name="Page-1" id="gKqFXJdq4HM6e-BKeqPG">
    <mxGraphModel>
      <root>
        <mxCell id="0" />
        <mxCell id="1" parent="0" />
      </root>
    </mxGraphModel>
  </diagram>
</mxfile>
